<svg xmlns="http://www.w3.org/2000/svg" xmlns:xlink="http://www.w3.org/1999/xlink" width="60" height="60" viewBox="0 0 60 60">
  <defs>
    <clipPath id="clip-shopfront_icon">
      <rect width="60" height="60"/>
    </clipPath>
  </defs>
  <g id="shopfront_icon" clip-path="url(#clip-shopfront_icon)">
    <g id="shop" transform="translate(1.473 1.473)">
      <rect id="Rectangle_88" data-name="Rectangle 88" width="50.874" height="35.421" transform="translate(3.09 17.83)" fill="#f3f3f3"/>
      <path id="Path_371" data-name="Path 371" d="M0,135.467V138.8A5.632,5.632,0,0,0,5.705,144.5a5.632,5.632,0,0,0,5.705-5.705v-3.328Z" transform="translate(0 -120.371)" fill="#f05540"/>
      <path id="Path_372" data-name="Path 372" d="M102.4,135.467V138.8a5.705,5.705,0,0,0,11.411,0v-3.328Z" transform="translate(-90.989 -120.371)" fill="#ced6e0"/>
      <path id="Path_373" data-name="Path 373" d="M204.8,135.467V138.8a5.705,5.705,0,0,0,11.411,0v-3.328Z" transform="translate(-181.978 -120.371)" fill="#f05540"/>
      <path id="Path_374" data-name="Path 374" d="M307.2,135.467V138.8a5.705,5.705,0,0,0,11.411,0v-3.328Z" transform="translate(-272.967 -120.371)" fill="#ced6e0"/>
      <path id="Path_375" data-name="Path 375" d="M409.6,135.467V138.8a5.705,5.705,0,1,0,11.411,0v-3.328Z" transform="translate(-363.956 -120.371)" fill="#f05540"/>
      <path id="Path_376" data-name="Path 376" d="M11.411,71.016l4.279-8.083H7.251L0,71.016Z" transform="translate(0 -55.92)" fill="#f3705a"/>
      <path id="Path_377" data-name="Path 377" d="M113.811,71.016l1.426-8.083h-8.558L102.4,71.016Z" transform="translate(-90.989 -55.92)" fill="#e8eae9"/>
      <path id="Path_378" data-name="Path 378" d="M216.211,71.016l-1.426-8.083h-8.558L204.8,71.016Z" transform="translate(-181.978 -55.92)" fill="#f3705a"/>
      <path id="Path_379" data-name="Path 379" d="M307.237,71.016l-4.279-8.083H294.4l1.426,8.083Z" transform="translate(-261.594 -55.92)" fill="#e8eae9"/>
      <path id="Path_380" data-name="Path 380" d="M386.89,71.016l-7.251-8.083H371.2l4.279,8.083Z" transform="translate(-329.835 -55.92)" fill="#f3705a"/>
      <g id="Group_216" data-name="Group 216" transform="translate(7.251)">
        <rect id="Rectangle_89" data-name="Rectangle 89" width="42.672" height="7.013" fill="#415a6b"/>
        <rect id="Rectangle_90" data-name="Rectangle 90" width="17.116" height="22.941" transform="translate(0.594 30.31)" fill="#415a6b"/>
        <rect id="Rectangle_91" data-name="Rectangle 91" width="21.277" height="19.613" transform="translate(22.227 30.31)" fill="#415a6b"/>
      </g>
      <rect id="Rectangle_92" data-name="Rectangle 92" width="16.522" height="14.858" transform="translate(31.856 32.688)" fill="#8ad7f8"/>
      <g id="Group_217" data-name="Group 217" transform="translate(33.609 34.679)">
        <path id="Path_381" data-name="Path 381" d="M309.594,312.537l-6.656,6.656a.756.756,0,1,1-1.07-1.07l6.656-6.656a.756.756,0,0,1,1.07,1.07Z" transform="translate(-301.6 -311.2)" fill="#55c0eb"/>
        <path id="Path_382" data-name="Path 382" d="M335.188,340.27l-4.517,4.517a.756.756,0,0,1-1.07-1.07l4.517-4.517a.756.756,0,1,1,1.07,1.07Z" transform="translate(-326.244 -335.843)" fill="#55c0eb"/>
      </g>
      <rect id="Rectangle_93" data-name="Rectangle 93" width="57.055" height="3.804" transform="translate(0 53.251)" fill="#ced6e0"/>
    </g>
    <text id="Shopfront_" data-name="Shopfront " transform="translate(17.002 6.473)" fill="#f05540" font-size="5" font-family="Poppins-Regular, Poppins"><tspan x="0" y="0">Shopfront </tspan></text>
    <g id="Rectangle_94" data-name="Rectangle 94" transform="translate(9 31)" fill="none" stroke="#707070" stroke-width="1">
      <rect width="18" height="24" stroke="none"/>
      <rect x="0.5" y="0.5" width="17" height="23" fill="none"/>
    </g>
    <g id="Ellipse_75" data-name="Ellipse 75" transform="translate(23 43)" fill="#fff" stroke="#707070" stroke-width="1">
      <circle cx="1" cy="1" r="1" stroke="none"/>
      <circle cx="1" cy="1" r="0.5" fill="none"/>
    </g>
  </g>
</svg>
